<mxfile host="app.diagrams.net" modified="2024-03-09T11:53:41.286Z" agent="Mozilla/5.0 (Windows NT 10.0; Win64; x64; rv:123.0) Gecko/20100101 Firefox/123.0" etag="wKGciGZCE6atXjx5Kopa" version="24.0.3" type="device">
  <diagram name="Страница — 1" id="H4S7BTWqfcNojyQk5UP0">
    <mxGraphModel dx="1674" dy="751" grid="1" gridSize="10" guides="1" tooltips="1" connect="1" arrows="1" fold="1" page="1" pageScale="1" pageWidth="827" pageHeight="1169" math="0" shadow="0">
      <root>
        <mxCell id="0" />
        <mxCell id="1" parent="0" />
        <mxCell id="myzHAeWB5mbKgUgc6GiV-1" value="Тестировщик" style="shape=umlActor;verticalLabelPosition=bottom;verticalAlign=top;html=1;outlineConnect=0;" vertex="1" parent="1">
          <mxGeometry x="180" y="410" width="40" height="80" as="geometry" />
        </mxCell>
        <mxCell id="myzHAeWB5mbKgUgc6GiV-2" value="Backend-разработчик" style="shape=umlActor;verticalLabelPosition=bottom;verticalAlign=top;html=1;outlineConnect=0;" vertex="1" parent="1">
          <mxGeometry x="590" y="30" width="40" height="80" as="geometry" />
        </mxCell>
        <mxCell id="myzHAeWB5mbKgUgc6GiV-3" value="Мобильный разработчик" style="shape=umlActor;verticalLabelPosition=bottom;verticalAlign=top;html=1;outlineConnect=0;" vertex="1" parent="1">
          <mxGeometry x="860" y="160" width="40" height="80" as="geometry" />
        </mxCell>
        <mxCell id="myzHAeWB5mbKgUgc6GiV-4" value="Аналитик" style="shape=umlActor;verticalLabelPosition=bottom;verticalAlign=top;html=1;outlineConnect=0;" vertex="1" parent="1">
          <mxGeometry x="520" y="410" width="40" height="80" as="geometry" />
        </mxCell>
        <mxCell id="myzHAeWB5mbKgUgc6GiV-5" value="Менеджер проекта" style="shape=umlActor;verticalLabelPosition=bottom;verticalAlign=top;html=1;outlineConnect=0;" vertex="1" parent="1">
          <mxGeometry x="340" y="200" width="40" height="80" as="geometry" />
        </mxCell>
        <mxCell id="myzHAeWB5mbKgUgc6GiV-6" value="" style="endArrow=classic;html=1;rounded=0;" edge="1" parent="1">
          <mxGeometry relative="1" as="geometry">
            <mxPoint x="360" y="440" as="sourcePoint" />
            <mxPoint x="360" y="300" as="targetPoint" />
          </mxGeometry>
        </mxCell>
        <mxCell id="myzHAeWB5mbKgUgc6GiV-7" value="&lt;div&gt;Предоставляет&lt;/div&gt;&lt;div&gt;отчеты о &lt;br&gt;&lt;/div&gt;&lt;div&gt;состоянии проекта&lt;br&gt;&lt;/div&gt;" style="edgeLabel;resizable=0;html=1;;align=center;verticalAlign=middle;" connectable="0" vertex="1" parent="myzHAeWB5mbKgUgc6GiV-6">
          <mxGeometry relative="1" as="geometry" />
        </mxCell>
        <mxCell id="myzHAeWB5mbKgUgc6GiV-8" value="" style="endArrow=none;html=1;rounded=0;" edge="1" parent="1">
          <mxGeometry width="50" height="50" relative="1" as="geometry">
            <mxPoint x="230" y="440" as="sourcePoint" />
            <mxPoint x="360" y="440" as="targetPoint" />
          </mxGeometry>
        </mxCell>
        <mxCell id="myzHAeWB5mbKgUgc6GiV-9" value="" style="endArrow=none;html=1;rounded=0;" edge="1" parent="1">
          <mxGeometry width="50" height="50" relative="1" as="geometry">
            <mxPoint x="170" y="440" as="sourcePoint" />
            <mxPoint x="120" y="440" as="targetPoint" />
          </mxGeometry>
        </mxCell>
        <mxCell id="myzHAeWB5mbKgUgc6GiV-10" value="" style="endArrow=none;html=1;rounded=0;" edge="1" parent="1">
          <mxGeometry width="50" height="50" relative="1" as="geometry">
            <mxPoint x="120" y="440" as="sourcePoint" />
            <mxPoint x="120" y="60" as="targetPoint" />
          </mxGeometry>
        </mxCell>
        <mxCell id="myzHAeWB5mbKgUgc6GiV-12" value="" style="endArrow=classic;html=1;rounded=0;" edge="1" parent="1">
          <mxGeometry relative="1" as="geometry">
            <mxPoint x="120" y="60" as="sourcePoint" />
            <mxPoint x="580" y="60" as="targetPoint" />
          </mxGeometry>
        </mxCell>
        <mxCell id="myzHAeWB5mbKgUgc6GiV-13" value="&lt;div&gt;Описывает результаты&lt;/div&gt;&lt;div&gt;&amp;nbsp;тест-кейсов&lt;/div&gt;" style="edgeLabel;resizable=0;html=1;;align=center;verticalAlign=middle;" connectable="0" vertex="1" parent="myzHAeWB5mbKgUgc6GiV-12">
          <mxGeometry relative="1" as="geometry" />
        </mxCell>
        <mxCell id="myzHAeWB5mbKgUgc6GiV-14" value="" style="endArrow=none;html=1;rounded=0;" edge="1" parent="1">
          <mxGeometry width="50" height="50" relative="1" as="geometry">
            <mxPoint x="390" y="220" as="sourcePoint" />
            <mxPoint x="390" y="100" as="targetPoint" />
          </mxGeometry>
        </mxCell>
        <mxCell id="myzHAeWB5mbKgUgc6GiV-15" value="" style="endArrow=classic;html=1;rounded=0;" edge="1" parent="1">
          <mxGeometry relative="1" as="geometry">
            <mxPoint x="390" y="100" as="sourcePoint" />
            <mxPoint x="580" y="100" as="targetPoint" />
          </mxGeometry>
        </mxCell>
        <mxCell id="myzHAeWB5mbKgUgc6GiV-16" value="Контролирует" style="edgeLabel;resizable=0;html=1;;align=center;verticalAlign=middle;" connectable="0" vertex="1" parent="myzHAeWB5mbKgUgc6GiV-15">
          <mxGeometry relative="1" as="geometry" />
        </mxCell>
        <mxCell id="myzHAeWB5mbKgUgc6GiV-17" value="" style="endArrow=classic;html=1;rounded=0;" edge="1" parent="1">
          <mxGeometry relative="1" as="geometry">
            <mxPoint x="230" y="230" as="sourcePoint" />
            <mxPoint x="230" y="420" as="targetPoint" />
          </mxGeometry>
        </mxCell>
        <mxCell id="myzHAeWB5mbKgUgc6GiV-18" value="Контролирует" style="edgeLabel;resizable=0;html=1;;align=center;verticalAlign=middle;" connectable="0" vertex="1" parent="myzHAeWB5mbKgUgc6GiV-17">
          <mxGeometry relative="1" as="geometry">
            <mxPoint y="-7" as="offset" />
          </mxGeometry>
        </mxCell>
        <mxCell id="myzHAeWB5mbKgUgc6GiV-19" value="" style="endArrow=none;html=1;rounded=0;" edge="1" parent="1">
          <mxGeometry width="50" height="50" relative="1" as="geometry">
            <mxPoint x="230" y="230" as="sourcePoint" />
            <mxPoint x="330" y="230" as="targetPoint" />
          </mxGeometry>
        </mxCell>
        <mxCell id="myzHAeWB5mbKgUgc6GiV-20" value="" style="endArrow=none;html=1;rounded=0;" edge="1" parent="1" target="myzHAeWB5mbKgUgc6GiV-5">
          <mxGeometry width="50" height="50" relative="1" as="geometry">
            <mxPoint x="510" y="240" as="sourcePoint" />
            <mxPoint x="390" y="250" as="targetPoint" />
          </mxGeometry>
        </mxCell>
        <mxCell id="myzHAeWB5mbKgUgc6GiV-21" value="" style="endArrow=classic;html=1;rounded=0;" edge="1" parent="1">
          <mxGeometry relative="1" as="geometry">
            <mxPoint x="510" y="240" as="sourcePoint" />
            <mxPoint x="510" y="440" as="targetPoint" />
          </mxGeometry>
        </mxCell>
        <mxCell id="myzHAeWB5mbKgUgc6GiV-22" value="Контролирует" style="edgeLabel;resizable=0;html=1;;align=center;verticalAlign=middle;" connectable="0" vertex="1" parent="myzHAeWB5mbKgUgc6GiV-21">
          <mxGeometry relative="1" as="geometry">
            <mxPoint y="-7" as="offset" />
          </mxGeometry>
        </mxCell>
        <mxCell id="myzHAeWB5mbKgUgc6GiV-24" value="" style="endArrow=classic;html=1;rounded=0;" edge="1" parent="1">
          <mxGeometry relative="1" as="geometry">
            <mxPoint x="390" y="230" as="sourcePoint" />
            <mxPoint x="850" y="230" as="targetPoint" />
          </mxGeometry>
        </mxCell>
        <mxCell id="myzHAeWB5mbKgUgc6GiV-25" value="Контролирует" style="edgeLabel;resizable=0;html=1;;align=center;verticalAlign=middle;" connectable="0" vertex="1" parent="myzHAeWB5mbKgUgc6GiV-24">
          <mxGeometry relative="1" as="geometry" />
        </mxCell>
        <mxCell id="myzHAeWB5mbKgUgc6GiV-26" value="" style="endArrow=none;html=1;rounded=0;" edge="1" parent="1">
          <mxGeometry width="50" height="50" relative="1" as="geometry">
            <mxPoint x="690" y="430" as="sourcePoint" />
            <mxPoint x="570" y="430" as="targetPoint" />
          </mxGeometry>
        </mxCell>
        <mxCell id="myzHAeWB5mbKgUgc6GiV-31" value="" style="endArrow=classic;html=1;rounded=0;" edge="1" parent="1">
          <mxGeometry relative="1" as="geometry">
            <mxPoint x="690" y="430" as="sourcePoint" />
            <mxPoint x="690" y="180" as="targetPoint" />
          </mxGeometry>
        </mxCell>
        <mxCell id="myzHAeWB5mbKgUgc6GiV-32" value="&lt;div&gt;Предоставляет&lt;/div&gt;&lt;div&gt;трбеования &lt;br&gt;&lt;/div&gt;&lt;div&gt;к разработке&lt;br&gt;&lt;/div&gt;" style="edgeLabel;resizable=0;html=1;;align=center;verticalAlign=middle;" connectable="0" vertex="1" parent="myzHAeWB5mbKgUgc6GiV-31">
          <mxGeometry relative="1" as="geometry" />
        </mxCell>
        <mxCell id="myzHAeWB5mbKgUgc6GiV-34" value="" style="endArrow=classic;html=1;rounded=0;" edge="1" parent="1">
          <mxGeometry width="50" height="50" relative="1" as="geometry">
            <mxPoint x="690" y="190" as="sourcePoint" />
            <mxPoint x="850" y="190" as="targetPoint" />
          </mxGeometry>
        </mxCell>
        <mxCell id="myzHAeWB5mbKgUgc6GiV-35" value="" style="endArrow=none;html=1;rounded=0;" edge="1" parent="1">
          <mxGeometry width="50" height="50" relative="1" as="geometry">
            <mxPoint x="690" y="60" as="sourcePoint" />
            <mxPoint x="690" y="190" as="targetPoint" />
          </mxGeometry>
        </mxCell>
        <mxCell id="myzHAeWB5mbKgUgc6GiV-36" value="" style="endArrow=classic;html=1;rounded=0;" edge="1" parent="1">
          <mxGeometry width="50" height="50" relative="1" as="geometry">
            <mxPoint x="690" y="60" as="sourcePoint" />
            <mxPoint x="640" y="60" as="targetPoint" />
          </mxGeometry>
        </mxCell>
        <mxCell id="myzHAeWB5mbKgUgc6GiV-37" value="" style="endArrow=none;html=1;rounded=0;" edge="1" parent="1">
          <mxGeometry width="50" height="50" relative="1" as="geometry">
            <mxPoint x="850" y="50" as="sourcePoint" />
            <mxPoint x="640" y="50" as="targetPoint" />
          </mxGeometry>
        </mxCell>
        <mxCell id="myzHAeWB5mbKgUgc6GiV-39" value="" style="endArrow=classic;html=1;rounded=0;" edge="1" parent="1">
          <mxGeometry relative="1" as="geometry">
            <mxPoint x="850" y="50" as="sourcePoint" />
            <mxPoint x="850" y="180" as="targetPoint" />
          </mxGeometry>
        </mxCell>
        <mxCell id="myzHAeWB5mbKgUgc6GiV-40" value="&lt;div&gt;Описывает&lt;/div&gt;&lt;div&gt;интерфейс общения&lt;/div&gt;&lt;div&gt;&amp;nbsp;с сервером&lt;br&gt;&lt;/div&gt;" style="edgeLabel;resizable=0;html=1;;align=center;verticalAlign=middle;" connectable="0" vertex="1" parent="myzHAeWB5mbKgUgc6GiV-39">
          <mxGeometry relative="1" as="geometry" />
        </mxCell>
        <mxCell id="myzHAeWB5mbKgUgc6GiV-41" value="" style="endArrow=none;html=1;rounded=0;" edge="1" parent="1">
          <mxGeometry width="50" height="50" relative="1" as="geometry">
            <mxPoint x="1020" y="40" as="sourcePoint" />
            <mxPoint x="640" y="40" as="targetPoint" />
          </mxGeometry>
        </mxCell>
        <mxCell id="myzHAeWB5mbKgUgc6GiV-42" value="" style="endArrow=none;html=1;rounded=0;" edge="1" parent="1">
          <mxGeometry width="50" height="50" relative="1" as="geometry">
            <mxPoint x="1020" y="190" as="sourcePoint" />
            <mxPoint x="1020" y="40" as="targetPoint" />
          </mxGeometry>
        </mxCell>
        <mxCell id="myzHAeWB5mbKgUgc6GiV-43" value="" style="endArrow=none;html=1;rounded=0;entryX=1;entryY=0.3333333333333333;entryDx=0;entryDy=0;entryPerimeter=0;" edge="1" parent="1" target="myzHAeWB5mbKgUgc6GiV-3">
          <mxGeometry width="50" height="50" relative="1" as="geometry">
            <mxPoint x="1020" y="187" as="sourcePoint" />
            <mxPoint x="440" y="240" as="targetPoint" />
          </mxGeometry>
        </mxCell>
        <mxCell id="myzHAeWB5mbKgUgc6GiV-46" value="" style="endArrow=none;html=1;rounded=0;" edge="1" parent="1">
          <mxGeometry width="50" height="50" relative="1" as="geometry">
            <mxPoint x="1020" y="590" as="sourcePoint" />
            <mxPoint x="1020" y="190" as="targetPoint" />
          </mxGeometry>
        </mxCell>
        <mxCell id="myzHAeWB5mbKgUgc6GiV-47" value="" style="endArrow=none;html=1;rounded=0;" edge="1" parent="1">
          <mxGeometry width="50" height="50" relative="1" as="geometry">
            <mxPoint x="1020" y="590" as="sourcePoint" />
            <mxPoint x="210" y="590" as="targetPoint" />
          </mxGeometry>
        </mxCell>
        <mxCell id="myzHAeWB5mbKgUgc6GiV-48" value="" style="endArrow=classic;html=1;rounded=0;" edge="1" parent="1">
          <mxGeometry relative="1" as="geometry">
            <mxPoint x="210" y="590" as="sourcePoint" />
            <mxPoint x="210" y="510" as="targetPoint" />
          </mxGeometry>
        </mxCell>
        <mxCell id="myzHAeWB5mbKgUgc6GiV-49" value="&lt;div&gt;Предоставляют&lt;/div&gt;&lt;div&gt;разработанный функционал&lt;br&gt;&lt;/div&gt;" style="edgeLabel;resizable=0;html=1;;align=center;verticalAlign=middle;" connectable="0" vertex="1" parent="myzHAeWB5mbKgUgc6GiV-48">
          <mxGeometry relative="1" as="geometry" />
        </mxCell>
      </root>
    </mxGraphModel>
  </diagram>
</mxfile>
